<mxfile host="app.diagrams.net" agent="Mozilla/5.0 (Windows NT 10.0; Win64; x64) AppleWebKit/537.36 (KHTML, like Gecko) Chrome/138.0.0.0 YaBrowser/25.8.0.0 Safari/537.36" version="27.1.4">
  <diagram name="Page-1" id="UVl_Z-ogde_cfJSubMtW">
    <mxGraphModel dx="1426" dy="788" grid="1" gridSize="10" guides="1" tooltips="1" connect="1" arrows="1" fold="1" page="1" pageScale="1" pageWidth="827" pageHeight="1169" math="0" shadow="0">
      <root>
        <mxCell id="0" />
        <mxCell id="1" parent="0" />
        <mxCell id="RkUL695uQkDcAUczjcPL-4" style="edgeStyle=orthogonalEdgeStyle;rounded=0;orthogonalLoop=1;jettySize=auto;html=1;exitX=0.5;exitY=1;exitDx=0;exitDy=0;entryX=0.5;entryY=0;entryDx=0;entryDy=0;" edge="1" parent="1" source="RkUL695uQkDcAUczjcPL-1" target="RkUL695uQkDcAUczjcPL-2">
          <mxGeometry relative="1" as="geometry" />
        </mxCell>
        <mxCell id="RkUL695uQkDcAUczjcPL-1" value="InternetShop" style="shape=rectangle;whiteSpace=wrap;html=1;align=center;fontStyle=1;" vertex="1" parent="1">
          <mxGeometry x="314" y="325" width="200" height="40" as="geometry" />
        </mxCell>
        <mxCell id="RkUL695uQkDcAUczjcPL-2" value="- storeName: string&#xa;- tvPrice: double&#xa;- purchases: int" style="shape=rectangle;whiteSpace=wrap;html=1;align=left;" vertex="1" parent="1">
          <mxGeometry x="314" y="365" width="200" height="80" as="geometry" />
        </mxCell>
        <mxCell id="RkUL695uQkDcAUczjcPL-3" value="+ getStoreName(): string&#xa;+ getTvPrice(): double&#xa;+ getPurchases(): int&#xa;+ setPurchases(count: int): void&#xa;+ setTvPrice(price: double): void&#xa;+ getRevenue(): double" style="shape=rectangle;whiteSpace=wrap;html=1;align=left;" vertex="1" parent="1">
          <mxGeometry x="314" y="445" width="200" height="140" as="geometry" />
        </mxCell>
      </root>
    </mxGraphModel>
  </diagram>
</mxfile>
